<?xml version="1.0" encoding="UTF-8"?>
<!DOCTYPE svg PUBLIC "-//W3C//DTD SVG 1.1//EN" "http://www.w3.org/Graphics/SVG/1.1/DTD/svg11.dtd">
<!-- Creator: CorelDRAW 2018 (64-Bit) -->
<svg xmlns="http://www.w3.org/2000/svg" xml:space="preserve" width="2.0375mm" height="2.0376mm" version="1.1" style="shape-rendering:geometricPrecision; text-rendering:geometricPrecision; image-rendering:optimizeQuality; fill-rule:evenodd; clip-rule:evenodd"
viewBox="0 0 16.24 16.24"
 xmlns:xlink="http://www.w3.org/1999/xlink">
 <defs>
  <style type="text/css">
   <![CDATA[
    .fil0 {fill:#E30613;fill-rule:nonzero}
    .fil1 {fill:white;fill-rule:nonzero}
   ]]>
  </style>
 </defs>
 <g id="Слой_x0020_1">
  <metadata id="CorelCorpID_0Corel-Layer"/>
  <polygon class="fil0" points="16.24,12.99 12.99,16.24 0.98,16.24 -0,15.26 -0,3.25 3.25,0 15.26,0 16.24,0.98 "/>
  <polygon class="fil1" points="14.6,0.75 11.28,4.06 11.28,8.9 8.57,5.17 2.85,5.17 2.85,6.34 4.53,6.34 4.53,10.82 0.75,14.6 0.75,15.49 1.64,15.49 5.8,11.32 5.8,6.34 7.49,6.34 7.49,11.06 8.75,11.06 8.75,7.33 11.46,11.06 12.54,11.06 12.54,4.58 15.49,1.64 15.49,0.75 "/>
 </g>
</svg>
