<?xml version="1.0" encoding="UTF-8"?>
<!DOCTYPE svg PUBLIC "-//W3C//DTD SVG 1.1//EN" "http://www.w3.org/Graphics/SVG/1.1/DTD/svg11.dtd">
<!-- Creator: CorelDRAW 2018 (64-Bit) -->
<svg xmlns="http://www.w3.org/2000/svg" xml:space="preserve" width="1.2008mm" height="1.2008mm" version="1.1" style="shape-rendering:geometricPrecision; text-rendering:geometricPrecision; image-rendering:optimizeQuality; fill-rule:evenodd; clip-rule:evenodd"
viewBox="0 0 2.25 2.25"
 xmlns:xlink="http://www.w3.org/1999/xlink">
 <defs>
  <style type="text/css">
   <![CDATA[
    .fil0 {fill:white;fill-rule:nonzero}
   ]]>
  </style>
 </defs>
 <g id="Слой_x0020_1">
  <metadata id="CorelCorpID_0Corel-Layer"/>
  <path class="fil0" d="M2.25 1.8l-0.45 0.45 -1.66 0 0 0 0 0 0.63 -0.63 0 -0.76 0.26 0 0 0.72 0.19 0 0 -0.57 0.41 0.57 0.16 0 0 -0.99 0.45 -0.45 0 1.66zm-2.25 0.31l0 -1.66 0.45 -0.45 1.66 0 0 0 0 0 -0.5 0.5 0 0.74 -0.41 -0.57 -0.87 0 0 0.18 0.26 0 0 0.68 -0.58 0.58z"/>
 </g>
</svg>
