<?xml version="1.0" encoding="UTF-8"?>
<!DOCTYPE svg PUBLIC "-//W3C//DTD SVG 1.1//EN" "http://www.w3.org/Graphics/SVG/1.1/DTD/svg11.dtd">
<!-- Creator: CorelDRAW 2018 (64-Bit) -->
<svg xmlns="http://www.w3.org/2000/svg" xml:space="preserve" width="1.6122mm" height="1.7788mm" version="1.1" style="shape-rendering:geometricPrecision; text-rendering:geometricPrecision; image-rendering:optimizeQuality; fill-rule:evenodd; clip-rule:evenodd"
viewBox="0 0 3.22 3.55"
 xmlns:xlink="http://www.w3.org/1999/xlink">
 <defs>
  <style type="text/css">
   <![CDATA[
    .fil0 {fill:white}
   ]]>
  </style>
 </defs>
 <g id="Слой_x0020_1">
  <metadata id="CorelCorpID_0Corel-Layer"/>
  <path class="fil0" d="M1 0.23c-0.04,0 -0.2,0.11 -0.25,0.15 -0.07,0.06 -0.08,0.07 -0.14,0.12 -0.15,0.14 -0.29,0.38 -0.35,0.56 -0.02,0.07 -0.04,0.14 -0.05,0.21 -0.02,0.08 -0.01,0.16 -0.02,0.24 -0.03,0.01 -0.07,0.02 -0.1,0.04 -0.1,0.08 -0.1,0.22 -0.03,0.3 0.02,0.02 0.06,0.04 0.09,0.05 0.03,0.01 0.39,0.06 0.45,0.06 0.03,0 0.03,0.01 0.06,0.01 0.04,0.01 0.09,0.01 0.13,0.01 0.43,0.04 0.96,0.04 1.39,0.02 0.18,-0.01 0.23,-0.01 0.4,-0.03l0.2 -0.02c0.08,-0.01 0.25,-0.02 0.31,-0.05 0.03,-0.01 0.06,-0.04 0.08,-0.06 0.05,-0.06 0.07,-0.14 0.03,-0.21 -0.04,-0.09 -0.1,-0.1 -0.17,-0.12 -0.01,-0.31 -0.06,-0.48 -0.21,-0.74 -0.03,-0.05 -0.11,-0.16 -0.15,-0.21 -0.12,-0.13 -0.25,-0.23 -0.4,-0.31 -0.07,-0.04 -0.04,-0.04 -0.09,0.22 -0.03,0.13 -0.05,0.27 -0.07,0.4 -0.01,0.07 -0.01,0.15 -0.07,0.16 -0.06,0.02 -0.11,-0.03 -0.09,-0.13 0.03,-0.13 0.04,-0.27 0.07,-0.4 0.01,-0.06 0.07,-0.37 0.06,-0.4 -0.02,-0.05 -0.08,-0.1 -0.14,-0.1 -0.07,-0.01 -0.17,-0 -0.24,-0 -0.09,0 -0.4,-0.01 -0.46,0.01 -0.04,0.02 -0.11,0.07 -0.1,0.13 0.01,0.07 0.02,0.14 0.04,0.2 0.01,0.08 0.1,0.55 0.11,0.61 0.01,0.08 -0.07,0.12 -0.13,0.07 -0.03,-0.03 -0.04,-0.13 -0.05,-0.19l-0.07 -0.4c-0.01,-0.05 -0.03,-0.15 -0.03,-0.2z"/>
  <path class="fil0" d="M2.02 3.13c0.02,-0.01 0.04,-0.02 0.06,-0.03 0.03,-0.01 0.03,-0.01 0.06,0 0.04,0.02 0.07,0.04 0.1,0.06 0.04,0.02 0.07,0.04 0.1,0.06 0.03,0.02 0.08,0.05 0.1,0.05 0.01,-0 0.26,-0.25 0.26,-0.26 -0,-0.03 -0.09,-0.18 -0.11,-0.21 -0.02,-0.04 -0.04,-0.07 -0.06,-0.1 -0.01,-0.03 -0.02,-0.03 -0,-0.05 0.03,-0.05 0.06,-0.16 0.07,-0.17 0.01,-0.01 0.1,-0.03 0.12,-0.04 0.05,-0.01 0.22,-0.06 0.24,-0.07 0.01,-0.03 0.01,-0.25 -0,-0.27 -0.01,-0.01 -0.32,0.03 -0.37,0.04 -0.06,0.01 -0.36,0.02 -0.38,0.03 -0.02,0.02 0.02,0.24 -0.18,0.44 -0.32,0.33 -0.92,0.21 -1.04,-0.31 -0.01,-0.03 -0.01,-0.12 -0.02,-0.13 -0.03,-0.01 -0.29,-0.02 -0.34,-0.03 -0.1,-0.01 -0.22,-0.02 -0.33,-0.04 -0.1,-0.02 -0.09,-0.02 -0.09,0.08 0,0.22 -0.02,0.19 0.06,0.21l0.21 0.06c0.11,0.03 0.1,0.02 0.12,0.07 0.05,0.16 0.09,0.13 0.05,0.19l-0.1 0.18c-0.07,0.13 -0.09,0.12 -0.04,0.17 0.04,0.04 0.22,0.22 0.23,0.22 0.02,-0 0.08,-0.04 0.11,-0.06 0.04,-0.02 0.07,-0.04 0.1,-0.06 0.16,-0.09 0.12,-0.08 0.21,-0.03 0.15,0.07 0.09,-0.02 0.19,0.3 0.01,0.02 0.03,0.11 0.04,0.12 0.01,0.01 0.35,0.01 0.36,0 0.01,-0.01 0,0 0.01,-0.01 0,-0 0.01,-0.01 0.01,-0.02l0.06 -0.22c0.05,-0.16 0.01,-0.11 0.15,-0.17z"/>
 </g>
</svg>
