<?xml version="1.0" encoding="UTF-8"?>
<!DOCTYPE svg PUBLIC "-//W3C//DTD SVG 1.1//EN" "http://www.w3.org/Graphics/SVG/1.1/DTD/svg11.dtd">
<!-- Creator: CorelDRAW 2018 (64-Bit) -->
<svg xmlns="http://www.w3.org/2000/svg" xml:space="preserve" width="1.6064mm" height="1.6064mm" version="1.1" style="shape-rendering:geometricPrecision; text-rendering:geometricPrecision; image-rendering:optimizeQuality; fill-rule:evenodd; clip-rule:evenodd"
viewBox="0 0 4.38 4.38"
 xmlns:xlink="http://www.w3.org/1999/xlink">
 <defs>
  <style type="text/css">
   <![CDATA[
    .fil0 {fill:white;fill-rule:nonzero}
   ]]>
  </style>
 </defs>
 <g id="Слой_x0020_1">
  <metadata id="CorelCorpID_0Corel-Layer"/>
  <g>
   <path class="fil0" d="M4.38 1.74l-0.39 0 0 0 -0 -0.07 -0.01 -0.07 -0.01 -0.07 -0.01 -0.07 -0.01 -0.06 -0.02 -0.06 -0.02 -0.06 -0.02 -0.06 -0.03 -0.06 -0.03 -0.06 -0.03 -0.06 -0.03 -0.05 -0.04 -0.05 -0.04 -0.05 -0.04 -0.05 -0.04 -0.05 -0.05 -0.04 -0.05 -0.04 -0.05 -0.04 -0.05 -0.04 -0.05 -0.03 -0.06 -0.03 -0.06 -0.03 -0.06 -0.03 -0.06 -0.02 -0.06 -0.02 -0.06 -0.02 -0.06 -0.01 -0.07 -0.01 -0.07 -0.01 -0.07 -0.01 -0.07 -0 0 -0.39 0.09 0 0.09 0.01 0.09 0.01 0.09 0.02 0.08 0.02 0.08 0.02 0.08 0.03 0.08 0.03 0.08 0.03 0.07 0.04 0.07 0.04 0.07 0.05 0.07 0.05 0.07 0.05 0.06 0.05 0.06 0.06 0.06 0.06 0.05 0.06 0.05 0.07 0.05 0.07 0.05 0.07 0.04 0.07 0.04 0.08 0.03 0.08 0.03 0.08 0.03 0.08 0.02 0.08 0.02 0.08 0.02 0.09 0.01 0.09 0.01 0.09 0 0.09 0 0zm-1.74 1.74l0 -0.39 0 0 0.07 -0 0.07 -0.01 0.07 -0.01 0.07 -0.01 0.06 -0.01 0.06 -0.02 0.06 -0.02 0.06 -0.02 0.06 -0.03 0.06 -0.03 0.06 -0.03 0.05 -0.03 0.05 -0.04 0.05 -0.04 0.05 -0.04 0.05 -0.04 0.04 -0.05 0.04 -0.05 0.04 -0.05 0.04 -0.05 0.03 -0.05 0.03 -0.06 0.03 -0.06 0.03 -0.06 0.02 -0.06 0.02 -0.06 0.02 -0.06 0.01 -0.06 0.01 -0.07 0.01 -0.07 0.01 -0.07 0 -0.07 0.39 0 -0 0.09 -0.01 0.09 -0.01 0.09 -0.02 0.09 -0.02 0.08 -0.02 0.08 -0.03 0.08 -0.03 0.08 -0.03 0.08 -0.04 0.08 -0.04 0.07 -0.05 0.07 -0.05 0.07 -0.05 0.07 -0.05 0.06 -0.06 0.06 -0.06 0.06 -0.06 0.05 -0.07 0.05 -0.07 0.05 -0.07 0.05 -0.07 0.04 -0.07 0.04 -0.08 0.03 -0.08 0.03 -0.08 0.03 -0.08 0.02 -0.08 0.02 -0.09 0.02 -0.09 0.01 -0.09 0.01 -0.09 0 0 0zm-1.74 -1.74l0.39 0 0 0 0 0.07 0.01 0.07 0.01 0.07 0.01 0.07 0.01 0.06 0.02 0.06 0.02 0.06 0.02 0.06 0.03 0.06 0.03 0.06 0.03 0.06 0.03 0.05 0.04 0.05 0.04 0.05 0.04 0.05 0.04 0.05 0.05 0.04 0.05 0.04 0.05 0.04 0.05 0.04 0.05 0.03 0.06 0.03 0.06 0.03 0.06 0.03 0.06 0.02 0.06 0.02 0.06 0.02 0.06 0.01 0.07 0.01 0.07 0.01 0.07 0.01 0.07 0 0 0.39 -0.09 -0 -0.09 -0.01 -0.09 -0.01 -0.09 -0.02 -0.08 -0.02 -0.08 -0.02 -0.08 -0.03 -0.08 -0.03 -0.08 -0.03 -0.08 -0.04 -0.07 -0.04 -0.07 -0.05 -0.07 -0.05 -0.07 -0.05 -0.06 -0.05 -0.06 -0.06 -0.06 -0.06 -0.05 -0.06 -0.05 -0.07 -0.05 -0.07 -0.05 -0.07 -0.04 -0.07 -0.04 -0.08 -0.03 -0.08 -0.03 -0.08 -0.03 -0.08 -0.02 -0.08 -0.02 -0.08 -0.02 -0.09 -0.01 -0.09 -0.01 -0.09 -0 -0.09 0 0zm1.74 -1.74l0 0.39 0 0 -0.07 0 -0.07 0.01 -0.07 0.01 -0.07 0.01 -0.06 0.01 -0.06 0.02 -0.06 0.02 -0.06 0.02 -0.06 0.03 -0.06 0.03 -0.06 0.03 -0.05 0.03 -0.05 0.04 -0.05 0.04 -0.05 0.04 -0.05 0.04 -0.04 0.05 -0.04 0.05 -0.04 0.05 -0.04 0.05 -0.03 0.05 -0.03 0.06 -0.03 0.06 -0.03 0.06 -0.02 0.06 -0.02 0.06 -0.02 0.06 -0.01 0.06 -0.01 0.07 -0.01 0.07 -0.01 0.07 -0 0.07 -0.39 0 0 -0.09 0.01 -0.09 0.01 -0.09 0.02 -0.09 0.02 -0.08 0.02 -0.08 0.03 -0.08 0.03 -0.08 0.03 -0.08 0.04 -0.08 0.04 -0.07 0.05 -0.07 0.05 -0.07 0.05 -0.07 0.05 -0.06 0.06 -0.06 0.06 -0.06 0.06 -0.05 0.07 -0.05 0.07 -0.05 0.07 -0.05 0.07 -0.04 0.08 -0.04 0.08 -0.03 0.08 -0.03 0.08 -0.03 0.08 -0.02 0.08 -0.02 0.09 -0.02 0.09 -0.01 0.09 -0.01 0.09 -0 0 0z"/>
  </g>
  <g>
   <polygon class="fil0" points="-0,4.1 1.41,2.69 1.69,2.97 0.28,4.38 "/>
  </g>
 </g>
</svg>
