<?xml version="1.0" encoding="UTF-8"?>
<!DOCTYPE svg PUBLIC "-//W3C//DTD SVG 1.1//EN" "http://www.w3.org/Graphics/SVG/1.1/DTD/svg11.dtd">
<!-- Creator: CorelDRAW 2018 (64-Bit) -->
<svg xmlns="http://www.w3.org/2000/svg" xml:space="preserve" width="1.8787mm" height="0.9933mm" version="1.1" style="shape-rendering:geometricPrecision; text-rendering:geometricPrecision; image-rendering:optimizeQuality; fill-rule:evenodd; clip-rule:evenodd"
viewBox="0 0 5.98 3.16"
 xmlns:xlink="http://www.w3.org/1999/xlink">
 <defs>
  <style type="text/css">
   <![CDATA[
    .fil0 {fill:white;fill-rule:nonzero}
   ]]>
  </style>
 </defs>
 <g id="Слой_x0020_1">
  <metadata id="CorelCorpID_0Corel-Layer"/>
  <g>
   <path class="fil0" d="M4.4 0.34l-2.82 0 0 -0.34 2.82 0 0 0 0 0.34zm1.58 1.25l-0.34 0 0 0 -0 -0.06 -0 -0.06 -0.01 -0.06 -0.01 -0.06 -0.01 -0.06 -0.02 -0.06 -0.02 -0.06 -0.02 -0.06 -0.02 -0.06 -0.03 -0.05 -0.03 -0.05 -0.03 -0.05 -0.04 -0.05 -0.04 -0.05 -0.04 -0.04 -0.04 -0.04 -0.04 -0.04 -0.04 -0.04 -0.05 -0.04 -0.05 -0.04 -0.05 -0.03 -0.05 -0.03 -0.05 -0.03 -0.06 -0.02 -0.06 -0.02 -0.06 -0.02 -0.06 -0.02 -0.06 -0.01 -0.06 -0.01 -0.06 -0.01 -0.06 -0 -0.06 -0 0 -0.34 0.08 0 0.08 0.01 0.08 0.01 0.08 0.01 0.08 0.02 0.08 0.02 0.07 0.03 0.07 0.03 0.07 0.03 0.07 0.04 0.07 0.04 0.06 0.04 0.06 0.04 0.06 0.05 0.06 0.05 0.05 0.05 0.05 0.05 0.05 0.06 0.05 0.06 0.04 0.06 0.04 0.06 0.04 0.07 0.04 0.07 0.03 0.07 0.03 0.07 0.03 0.07 0.02 0.08 0.02 0.08 0.01 0.08 0.01 0.08 0.01 0.08 0 0.08 0 0zm-0.34 0l0 -0 0.34 0 0 0 0 0 -0.34 0zm-1.25 1.58l0 -0.34 0 0 0.06 -0 0.06 -0 0.06 -0.01 0.06 -0.01 0.06 -0.01 0.06 -0.02 0.06 -0.02 0.06 -0.02 0.06 -0.03 0.05 -0.03 0.05 -0.03 0.05 -0.03 0.05 -0.04 0.05 -0.04 0.05 -0.04 0.04 -0.04 0.04 -0.04 0.04 -0.05 0.04 -0.05 0.04 -0.05 0.03 -0.05 0.03 -0.05 0.03 -0.05 0.02 -0.06 0.02 -0.06 0.02 -0.06 0.02 -0.06 0.01 -0.06 0.01 -0.06 0.01 -0.06 0 -0.06 0 -0.06 0.34 0 -0 0.08 -0.01 0.08 -0.01 0.08 -0.01 0.08 -0.02 0.08 -0.02 0.08 -0.03 0.07 -0.03 0.07 -0.03 0.07 -0.04 0.07 -0.04 0.07 -0.04 0.06 -0.04 0.06 -0.05 0.06 -0.05 0.06 -0.05 0.06 -0.05 0.05 -0.06 0.05 -0.06 0.05 -0.06 0.04 -0.06 0.04 -0.07 0.04 -0.07 0.03 -0.07 0.03 -0.07 0.03 -0.07 0.03 -0.08 0.02 -0.08 0.02 -0.08 0.01 -0.08 0.01 -0.08 0.01 -0.08 0 0 0zm-2.82 -0.34l2.82 0 0 0.34 -2.82 0 0 0 0 -0.34zm-1.58 -1.25l0.34 0 0 0 0 0.06 0 0.06 0.01 0.06 0.01 0.06 0.01 0.06 0.02 0.06 0.02 0.06 0.02 0.06 0.02 0.06 0.03 0.05 0.03 0.05 0.03 0.05 0.04 0.05 0.04 0.05 0.04 0.05 0.04 0.04 0.04 0.04 0.05 0.04 0.05 0.04 0.05 0.04 0.05 0.03 0.05 0.03 0.05 0.03 0.06 0.03 0.06 0.02 0.06 0.02 0.06 0.02 0.06 0.01 0.06 0.01 0.06 0.01 0.06 0 0.06 0 0 0.34 -0.08 -0 -0.08 -0.01 -0.08 -0.01 -0.08 -0.01 -0.08 -0.02 -0.08 -0.02 -0.07 -0.03 -0.07 -0.03 -0.07 -0.03 -0.07 -0.03 -0.07 -0.04 -0.06 -0.04 -0.06 -0.04 -0.06 -0.05 -0.06 -0.05 -0.05 -0.05 -0.05 -0.06 -0.05 -0.06 -0.05 -0.06 -0.04 -0.06 -0.04 -0.06 -0.04 -0.07 -0.04 -0.07 -0.03 -0.07 -0.03 -0.07 -0.03 -0.07 -0.02 -0.08 -0.02 -0.08 -0.01 -0.08 -0.01 -0.08 -0.01 -0.08 -0 -0.08 0 0zm0.34 -0l0 0 -0.34 0 0 -0 0 0 0.34 0zm1.25 -1.58l0 0.34 0 0 -0.06 0 -0.06 0 -0.06 0.01 -0.06 0.01 -0.06 0.01 -0.06 0.02 -0.06 0.02 -0.06 0.02 -0.06 0.02 -0.05 0.03 -0.05 0.03 -0.05 0.03 -0.05 0.04 -0.05 0.04 -0.04 0.04 -0.04 0.04 -0.04 0.04 -0.04 0.04 -0.04 0.05 -0.04 0.05 -0.03 0.05 -0.03 0.05 -0.03 0.05 -0.02 0.06 -0.02 0.06 -0.02 0.06 -0.02 0.06 -0.01 0.06 -0.01 0.06 -0.01 0.06 -0 0.06 -0 0.06 -0.34 0 0 -0.08 0.01 -0.08 0.01 -0.08 0.01 -0.08 0.02 -0.08 0.02 -0.08 0.03 -0.07 0.03 -0.07 0.03 -0.07 0.04 -0.07 0.04 -0.07 0.04 -0.06 0.04 -0.06 0.05 -0.06 0.05 -0.06 0.05 -0.05 0.05 -0.05 0.06 -0.05 0.06 -0.05 0.06 -0.04 0.06 -0.04 0.07 -0.04 0.07 -0.04 0.07 -0.03 0.07 -0.03 0.07 -0.03 0.08 -0.02 0.08 -0.02 0.08 -0.01 0.08 -0.01 0.08 -0.01 0.08 -0 0 0z"/>
  </g>
  <g>
   <path class="fil0" d="M3.16 1.58l-0.34 0 0 0 -0 -0.06 -0 -0.06 -0.01 -0.06 -0.01 -0.06 -0.01 -0.06 -0.02 -0.06 -0.02 -0.06 -0.02 -0.06 -0.02 -0.06 -0.03 -0.05 -0.03 -0.05 -0.03 -0.05 -0.03 -0.05 -0.04 -0.05 -0.04 -0.04 -0.04 -0.04 -0.04 -0.04 -0.04 -0.04 -0.05 -0.04 -0.05 -0.04 -0.05 -0.03 -0.05 -0.03 -0.05 -0.03 -0.06 -0.02 -0.06 -0.02 -0.06 -0.02 -0.06 -0.02 -0.06 -0.01 -0.06 -0.01 -0.06 -0.01 -0.06 -0 -0.06 -0 0 -0.34 0.08 0 0.08 0.01 0.08 0.01 0.08 0.01 0.08 0.02 0.07 0.02 0.07 0.02 0.07 0.03 0.07 0.03 0.07 0.03 0.07 0.04 0.06 0.04 0.06 0.04 0.06 0.05 0.06 0.05 0.05 0.05 0.05 0.05 0.05 0.06 0.05 0.06 0.04 0.06 0.04 0.06 0.04 0.07 0.03 0.07 0.03 0.07 0.03 0.07 0.02 0.07 0.02 0.07 0.02 0.08 0.01 0.08 0.01 0.08 0.01 0.08 0 0.08 0 0zm-1.58 1.58l0 -0.34 0 0 0.06 -0 0.06 -0 0.06 -0.01 0.06 -0.01 0.06 -0.01 0.06 -0.02 0.06 -0.02 0.06 -0.02 0.06 -0.02 0.05 -0.03 0.05 -0.03 0.05 -0.03 0.05 -0.03 0.05 -0.04 0.04 -0.04 0.04 -0.04 0.04 -0.04 0.04 -0.04 0.04 -0.05 0.03 -0.05 0.03 -0.05 0.03 -0.05 0.03 -0.05 0.02 -0.06 0.02 -0.06 0.02 -0.06 0.02 -0.06 0.01 -0.06 0.01 -0.06 0.01 -0.06 0 -0.06 0 -0.06 0.34 0 -0 0.08 -0.01 0.08 -0.01 0.08 -0.01 0.08 -0.02 0.08 -0.02 0.07 -0.02 0.07 -0.03 0.07 -0.03 0.07 -0.03 0.07 -0.04 0.07 -0.04 0.06 -0.04 0.06 -0.05 0.06 -0.05 0.06 -0.05 0.05 -0.05 0.05 -0.06 0.05 -0.06 0.05 -0.06 0.04 -0.06 0.04 -0.07 0.04 -0.07 0.03 -0.07 0.03 -0.07 0.03 -0.07 0.02 -0.07 0.02 -0.08 0.02 -0.08 0.01 -0.08 0.01 -0.08 0.01 -0.08 0 0 0zm-1.58 -1.58l0.34 0 0 0 0 0.06 0 0.06 0.01 0.06 0.01 0.06 0.01 0.06 0.02 0.06 0.02 0.06 0.02 0.06 0.02 0.06 0.03 0.05 0.03 0.05 0.03 0.05 0.03 0.05 0.04 0.05 0.04 0.04 0.04 0.04 0.04 0.04 0.05 0.04 0.05 0.04 0.05 0.03 0.05 0.03 0.05 0.03 0.05 0.03 0.06 0.02 0.06 0.02 0.06 0.02 0.06 0.02 0.06 0.01 0.06 0.01 0.06 0.01 0.06 0 0.06 0 0 0.34 -0.08 -0 -0.08 -0.01 -0.08 -0.01 -0.08 -0.01 -0.08 -0.02 -0.07 -0.02 -0.07 -0.02 -0.07 -0.03 -0.07 -0.03 -0.07 -0.03 -0.07 -0.04 -0.06 -0.04 -0.06 -0.04 -0.06 -0.05 -0.06 -0.05 -0.06 -0.05 -0.05 -0.06 -0.05 -0.06 -0.05 -0.06 -0.04 -0.06 -0.04 -0.06 -0.04 -0.07 -0.03 -0.07 -0.03 -0.07 -0.03 -0.07 -0.02 -0.07 -0.02 -0.07 -0.02 -0.08 -0.01 -0.08 -0.01 -0.08 -0.01 -0.08 -0 -0.08 0 0zm1.58 -1.58l0 0.34 0 0 -0.06 0 -0.06 0 -0.06 0.01 -0.06 0.01 -0.06 0.01 -0.06 0.02 -0.06 0.02 -0.06 0.02 -0.06 0.02 -0.05 0.03 -0.05 0.03 -0.05 0.03 -0.05 0.04 -0.05 0.04 -0.05 0.04 -0.04 0.04 -0.04 0.04 -0.04 0.04 -0.04 0.05 -0.03 0.05 -0.03 0.05 -0.03 0.05 -0.03 0.05 -0.02 0.06 -0.02 0.06 -0.02 0.06 -0.02 0.06 -0.01 0.06 -0.01 0.06 -0.01 0.06 -0 0.06 -0 0.06 -0.34 0 0 -0.08 0.01 -0.08 0.01 -0.08 0.01 -0.08 0.02 -0.08 0.02 -0.07 0.02 -0.07 0.03 -0.07 0.03 -0.07 0.03 -0.07 0.04 -0.07 0.04 -0.06 0.04 -0.06 0.05 -0.06 0.05 -0.06 0.05 -0.06 0.05 -0.05 0.06 -0.05 0.06 -0.05 0.06 -0.04 0.06 -0.04 0.07 -0.04 0.07 -0.03 0.07 -0.03 0.07 -0.03 0.07 -0.02 0.07 -0.02 0.08 -0.02 0.08 -0.01 0.08 -0.01 0.08 -0.01 0.08 -0 0 0z"/>
  </g>
 </g>
</svg>
