<?xml version="1.0" encoding="UTF-8"?>
<!DOCTYPE svg PUBLIC "-//W3C//DTD SVG 1.1//EN" "http://www.w3.org/Graphics/SVG/1.1/DTD/svg11.dtd">
<!-- Creator: CorelDRAW 2018 (64-Bit) -->
<svg xmlns="http://www.w3.org/2000/svg" xml:space="preserve" width="4.648mm" height="3.0987mm" version="1.1" style="shape-rendering:geometricPrecision; text-rendering:geometricPrecision; image-rendering:optimizeQuality; fill-rule:evenodd; clip-rule:evenodd"
viewBox="0 0 241.74 161.16"
 xmlns:xlink="http://www.w3.org/1999/xlink">
 <defs>
  <style type="text/css">
   <![CDATA[
    .fil1 {fill:white}
    .fil0 {fill:black;fill-rule:nonzero}
   ]]>
  </style>
 </defs>
 <g id="Слой_x0020_1">
  <metadata id="CorelCorpID_0Corel-Layer"/>
  <polygon class="fil0" points="241.74,9.72 232.03,0.01 9.71,0 -0,9.71 -0,128.93 32.23,161.16 232.03,161.16 241.74,151.45 "/>
  <path class="fil1" d="M99.45 26.59c-1.52,0.09 -7.15,3.76 -8.89,5.12 -2.63,2.05 -2.81,2.47 -4.87,4.32 -5.33,4.79 -10.18,13.29 -12.29,19.67 -0.82,2.47 -1.31,4.73 -1.84,7.35 -0.58,2.88 -0.45,5.49 -0.69,8.36 -1.21,0.42 -2.62,0.79 -3.56,1.52 -3.54,2.75 -3.41,7.76 -0.88,10.39 0.7,0.72 2.01,1.46 3.23,1.9 1.04,0.37 13.6,2.05 15.66,2.06 0.97,0.01 1.21,0.24 1.99,0.36 1.32,0.19 3.23,0.27 4.57,0.38 14.96,1.3 33.77,1.35 48.72,0.56 6.41,-0.34 8.01,-0.49 14,-1.15l6.98 -0.64c2.74,-0.53 8.65,-0.85 10.77,-1.76 0.89,-0.39 2.26,-1.28 2.92,-2.03 1.89,-2.13 2.49,-4.76 1.2,-7.43 -1.55,-3.2 -3.46,-3.45 -5.81,-4.21 -0.52,-10.95 -2.05,-16.76 -7.37,-26.06 -1.05,-1.83 -3.79,-5.48 -5.36,-7.18 -4.08,-4.42 -8.68,-8.09 -14.03,-10.87 -2.6,-1.35 -1.29,-1.49 -3.25,7.73 -0.95,4.48 -1.77,9.61 -2.49,14.1 -0.39,2.45 -0.43,5.14 -2.56,5.75 -2.13,0.59 -3.95,-0.98 -3.23,-4.47 0.95,-4.62 1.57,-9.4 2.5,-14.08 0.4,-1.97 2.61,-13.03 2.14,-14.14 -0.78,-1.83 -2.7,-3.33 -4.73,-3.53 -2.38,-0.23 -5.78,-0.03 -8.26,-0.03 -3.1,0 -14.06,-0.4 -16.15,0.4 -1.5,0.58 -3.81,2.39 -3.45,4.45 0.4,2.36 0.86,4.75 1.26,7.08 0.45,2.64 3.57,19.43 3.7,21.2 0.2,2.79 -2.57,4.18 -4.47,2.51 -1.16,-1.02 -1.44,-4.55 -1.79,-6.5l-2.48 -14.17c-0.26,-1.83 -1.2,-5.33 -1.18,-6.98z"/>
  <path class="fil1" d="M135.17 128.06c0.71,-0.31 1.28,-0.56 1.92,-0.9 0.89,-0.47 1.16,-0.42 2.01,0.08 1.25,0.73 2.41,1.31 3.66,2 1.24,0.68 2.41,1.32 3.65,2 1.03,0.56 2.66,1.6 3.56,1.88 0.46,-0.01 9.15,-8.79 9.2,-9.15 -0.15,-0.89 -3.26,-6.34 -3.88,-7.44 -0.7,-1.24 -1.34,-2.45 -2.01,-3.64 -0.53,-0.93 -0.55,-0.92 -0.03,-1.88 0.97,-1.77 2.11,-5.58 2.57,-5.91 0.35,-0.26 3.6,-1.13 4.31,-1.34 1.61,-0.48 7.6,-1.97 8.51,-2.61 0.25,-1.15 0.28,-8.91 -0.1,-9.51 -0.49,-0.24 -11.25,1.12 -12.86,1.33 -1.98,0.26 -12.55,0.85 -13.3,1.19 -0.57,0.59 0.79,8.3 -6.3,15.57 -11.21,11.49 -32.22,7.35 -36.38,-10.9 -0.25,-1.1 -0.26,-4.08 -0.59,-4.71 -0.98,-0.37 -10,-0.81 -11.89,-0.99 -3.65,-0.34 -7.85,-0.73 -11.41,-1.34 -3.58,-0.61 -3.03,-0.66 -3.03,2.69 0.01,7.54 -0.74,6.57 2.15,7.39l7.39 2.15c4.02,1.15 3.47,0.71 4.05,2.49 1.85,5.72 2.98,4.4 1.72,6.62l-3.35 6.18c-2.51,4.65 -3.08,4.14 -1.25,5.97 1.31,1.3 7.55,7.8 8.02,7.84 0.7,-0.14 2.87,-1.5 3.69,-1.92 1.24,-0.64 2.39,-1.31 3.65,-2 5.62,-3.08 4.1,-2.64 7.48,-1.15 5.35,2.36 3.32,-0.65 6.61,10.34 0.25,0.83 0.95,3.8 1.44,4.12 0.41,0.21 12.18,0.25 12.75,0.03 0.43,-0.32 0.1,0.03 0.35,-0.44 0.01,-0.01 0.18,-0.51 0.18,-0.54l2.23 -7.65c1.6,-5.69 0.45,-3.74 5.29,-5.85z"/>
 </g>
</svg>
