<?xml version="1.0" encoding="UTF-8"?>
<!DOCTYPE svg PUBLIC "-//W3C//DTD SVG 1.1//EN" "http://www.w3.org/Graphics/SVG/1.1/DTD/svg11.dtd">
<!-- Creator: CorelDRAW 2018 (64-Bit) -->
<svg xmlns="http://www.w3.org/2000/svg" xml:space="preserve" width="1.4093mm" height="1.4092mm" version="1.1" style="shape-rendering:geometricPrecision; text-rendering:geometricPrecision; image-rendering:optimizeQuality; fill-rule:evenodd; clip-rule:evenodd"
viewBox="0 0 14.32 14.32"
 xmlns:xlink="http://www.w3.org/1999/xlink">
 <defs>
  <style type="text/css">
   <![CDATA[
    .fil0 {fill:#999999;fill-rule:nonzero}
   ]]>
  </style>
 </defs>
 <g id="Слой_x0020_1">
  <metadata id="CorelCorpID_0Corel-Layer"/>
  <g>
   <path class="fil0" d="M14.32 7.16l-0.72 0 0 0 -0.01 -0.33 -0.03 -0.33 -0.04 -0.32 -0.06 -0.32 -0.07 -0.31 -0.09 -0.31 -0.1 -0.3 -0.12 -0.29 -0.13 -0.28 -0.14 -0.28 -0.16 -0.27 -0.17 -0.26 -0.18 -0.25 -0.19 -0.24 -0.2 -0.23 -0.21 -0.22 -0.22 -0.21 -0.23 -0.2 -0.24 -0.19 -0.25 -0.18 -0.26 -0.17 -0.27 -0.16 -0.28 -0.14 -0.28 -0.13 -0.29 -0.12 -0.3 -0.1 -0.31 -0.09 -0.31 -0.07 -0.32 -0.06 -0.32 -0.04 -0.33 -0.03 -0.33 -0.01 0 -0.72 0.37 0.01 0.36 0.03 0.36 0.04 0.35 0.06 0.35 0.08 0.34 0.1 0.33 0.11 0.33 0.13 0.32 0.14 0.31 0.16 0.3 0.17 0.29 0.19 0.28 0.2 0.27 0.21 0.26 0.22 0.25 0.24 0.24 0.25 0.22 0.26 0.21 0.27 0.2 0.28 0.19 0.29 0.17 0.3 0.16 0.31 0.14 0.32 0.13 0.33 0.11 0.33 0.1 0.34 0.08 0.35 0.06 0.35 0.04 0.36 0.03 0.36 0.01 0.37 0 0zm-7.16 7.16l0 -0.72 0 0 0.33 -0.01 0.33 -0.03 0.32 -0.04 0.32 -0.06 0.31 -0.07 0.31 -0.09 0.3 -0.1 0.29 -0.12 0.28 -0.13 0.28 -0.14 0.27 -0.16 0.26 -0.17 0.25 -0.18 0.24 -0.19 0.23 -0.2 0.22 -0.21 0.21 -0.22 0.2 -0.23 0.19 -0.24 0.18 -0.25 0.17 -0.26 0.16 -0.27 0.14 -0.28 0.13 -0.28 0.12 -0.29 0.1 -0.3 0.09 -0.31 0.07 -0.31 0.06 -0.32 0.04 -0.32 0.03 -0.33 0.01 -0.33 0.72 0 -0.01 0.37 -0.03 0.36 -0.04 0.36 -0.06 0.35 -0.08 0.35 -0.1 0.34 -0.11 0.33 -0.13 0.33 -0.14 0.32 -0.16 0.31 -0.17 0.3 -0.19 0.29 -0.2 0.28 -0.21 0.27 -0.22 0.26 -0.24 0.25 -0.25 0.24 -0.26 0.22 -0.27 0.21 -0.28 0.2 -0.29 0.19 -0.3 0.17 -0.31 0.16 -0.32 0.14 -0.33 0.13 -0.33 0.11 -0.34 0.1 -0.35 0.08 -0.35 0.06 -0.36 0.04 -0.36 0.03 -0.37 0.01 0 0zm-7.16 -7.16l0.72 0 0 0 0.01 0.33 0.03 0.33 0.04 0.32 0.06 0.32 0.07 0.31 0.09 0.31 0.1 0.3 0.12 0.29 0.13 0.28 0.14 0.28 0.15 0.27 0.17 0.26 0.18 0.25 0.19 0.24 0.2 0.23 0.21 0.22 0.22 0.21 0.23 0.2 0.24 0.19 0.25 0.18 0.26 0.17 0.27 0.16 0.28 0.14 0.28 0.13 0.29 0.12 0.3 0.1 0.31 0.09 0.31 0.07 0.32 0.06 0.32 0.04 0.33 0.03 0.33 0.01 0 0.72 -0.37 -0.01 -0.36 -0.03 -0.36 -0.04 -0.35 -0.06 -0.35 -0.08 -0.34 -0.1 -0.33 -0.11 -0.33 -0.13 -0.32 -0.14 -0.31 -0.16 -0.3 -0.17 -0.29 -0.19 -0.28 -0.2 -0.27 -0.21 -0.26 -0.22 -0.25 -0.24 -0.24 -0.25 -0.22 -0.26 -0.21 -0.27 -0.2 -0.28 -0.19 -0.29 -0.17 -0.3 -0.16 -0.31 -0.14 -0.32 -0.13 -0.33 -0.11 -0.33 -0.1 -0.34 -0.08 -0.35 -0.06 -0.35 -0.04 -0.36 -0.03 -0.36 -0.01 -0.37 0 0zm7.16 -7.16l0 0.72 0 0 -0.33 0.01 -0.33 0.03 -0.32 0.04 -0.32 0.06 -0.31 0.07 -0.31 0.09 -0.3 0.1 -0.29 0.12 -0.28 0.13 -0.28 0.14 -0.27 0.16 -0.26 0.17 -0.25 0.18 -0.24 0.19 -0.23 0.2 -0.22 0.21 -0.21 0.22 -0.2 0.23 -0.19 0.24 -0.18 0.25 -0.17 0.26 -0.15 0.27 -0.14 0.28 -0.13 0.28 -0.12 0.29 -0.1 0.3 -0.09 0.31 -0.07 0.31 -0.06 0.32 -0.04 0.32 -0.03 0.33 -0.01 0.33 -0.72 0 0.01 -0.37 0.03 -0.36 0.04 -0.36 0.06 -0.35 0.08 -0.35 0.1 -0.34 0.11 -0.33 0.13 -0.33 0.14 -0.32 0.16 -0.31 0.17 -0.3 0.19 -0.29 0.2 -0.28 0.21 -0.27 0.22 -0.26 0.24 -0.25 0.25 -0.24 0.26 -0.22 0.27 -0.21 0.28 -0.2 0.29 -0.19 0.3 -0.17 0.31 -0.16 0.32 -0.14 0.33 -0.13 0.33 -0.11 0.34 -0.1 0.35 -0.08 0.35 -0.06 0.36 -0.04 0.36 -0.03 0.37 -0.01 0 0z"/>
  </g>
  <g>
   <path class="fil0" d="M6.8 7.16l0 -5.74 0.72 0 0 5.74 -0.36 0.36 -0.36 -0.36zm0.36 0.36l-0.36 0 0 -0.36 0.36 0.36zm3.78 0l-3.78 0 0 -0.72 3.78 0 0 0.72z"/>
  </g>
 </g>
</svg>
